<svg width="65" height="60" viewBox="0 0 65 60" fill="none" xmlns="http://www.w3.org/2000/svg">
<path d="M14.4 59.82C9.972 59.82 6.58267 58.5627 4.232 56.048C1.88133 53.5333 0.706 49.98 0.706 45.388V15.212C0.706 10.62 1.88133 7.06666 4.232 4.552C6.58267 2.03733 9.972 0.779997 14.4 0.779997C18.828 0.779997 22.2173 2.03733 24.568 4.552C26.9187 7.06666 28.094 10.62 28.094 15.212V45.388C28.094 49.98 26.9187 53.5333 24.568 56.048C22.2173 58.5627 18.828 59.82 14.4 59.82ZM14.4 51.62C17.516 51.62 19.074 49.734 19.074 45.962V14.638C19.074 10.866 17.516 8.98 14.4 8.98C11.284 8.98 9.726 10.866 9.726 14.638V45.962C9.726 49.734 11.284 51.62 14.4 51.62ZM55.022 15.212H45.592V8.816C48.1614 8.816 50.2114 8.59733 51.742 8.16C53.3274 7.72267 54.5847 7.012 55.514 6.028C56.4434 4.98933 57.2634 3.51333 57.974 1.6H64.042V59H55.022V15.212Z" fill="white"/>
<path d="M4.232 56.048L4.96253 55.3651L4.232 56.048ZM4.232 4.552L4.96253 5.23488L4.232 4.552ZM24.568 4.552L23.8375 5.23488L24.568 4.552ZM24.568 56.048L23.8375 55.3651L24.568 56.048ZM14.4 58.82C10.1651 58.82 7.07358 57.6235 4.96253 55.3651L3.50147 56.7309C6.09175 59.5019 9.77894 60.82 14.4 60.82V58.82ZM4.96253 55.3651C2.83625 53.0905 1.706 49.813 1.706 45.388H-0.294C-0.294 50.147 0.926413 53.9762 3.50147 56.7309L4.96253 55.3651ZM1.706 45.388V15.212H-0.294V45.388H1.706ZM1.706 15.212C1.706 10.787 2.83625 7.5095 4.96253 5.23488L3.50147 3.86911C0.926413 6.62383 -0.294 10.453 -0.294 15.212H1.706ZM4.96253 5.23488C7.07358 2.97655 10.1651 1.78 14.4 1.78V-0.220003C9.77894 -0.220003 6.09175 1.09812 3.50147 3.86911L4.96253 5.23488ZM14.4 1.78C18.6349 1.78 21.7264 2.97655 23.8375 5.23488L25.2985 3.86911C22.7082 1.09812 19.0211 -0.220003 14.4 -0.220003V1.78ZM23.8375 5.23488C25.9637 7.5095 27.094 10.787 27.094 15.212H29.094C29.094 10.453 27.8736 6.62383 25.2985 3.86911L23.8375 5.23488ZM27.094 15.212V45.388H29.094V15.212H27.094ZM27.094 45.388C27.094 49.813 25.9637 53.0905 23.8375 55.3651L25.2985 56.7309C27.8736 53.9762 29.094 50.147 29.094 45.388H27.094ZM23.8375 55.3651C21.7264 57.6235 18.6349 58.82 14.4 58.82V60.82C19.0211 60.82 22.7082 59.5019 25.2985 56.7309L23.8375 55.3651ZM14.4 52.62C16.1678 52.62 17.6575 52.0758 18.6765 50.8424C19.6652 49.6455 20.074 47.9606 20.074 45.962H18.074C18.074 47.7354 17.7038 48.8795 17.1345 49.5686C16.5955 50.2212 15.7482 50.62 14.4 50.62V52.62ZM20.074 45.962V14.638H18.074V45.962H20.074ZM20.074 14.638C20.074 12.6394 19.6652 10.9545 18.6765 9.75762C17.6575 8.52419 16.1678 7.98 14.4 7.98V9.98C15.7482 9.98 16.5955 10.3788 17.1345 11.0314C17.7038 11.7205 18.074 12.8646 18.074 14.638H20.074ZM14.4 7.98C12.6322 7.98 11.1425 8.52419 10.1235 9.75762C9.13484 10.9545 8.726 12.6394 8.726 14.638H10.726C10.726 12.8646 11.0962 11.7205 11.6655 11.0314C12.2045 10.3788 13.0518 9.98 14.4 9.98V7.98ZM8.726 14.638V45.962H10.726V14.638H8.726ZM8.726 45.962C8.726 47.9606 9.13484 49.6455 10.1235 50.8424C11.1425 52.0758 12.6322 52.62 14.4 52.62V50.62C13.0518 50.62 12.2045 50.2212 11.6655 49.5686C11.0962 48.8795 10.726 47.7354 10.726 45.962H8.726ZM55.022 15.212H56.022V14.212H55.022V15.212ZM45.592 15.212H44.592V16.212H45.592V15.212ZM45.592 8.816V7.816H44.592V8.816H45.592ZM51.742 8.16L51.4761 7.19597L51.4673 7.19847L51.742 8.16ZM55.514 6.028L56.241 6.71462L56.2503 6.70483L56.2593 6.69479L55.514 6.028ZM57.974 1.6V0.599997H57.2787L57.0366 1.25181L57.974 1.6ZM64.042 1.6H65.042V0.599997H64.042V1.6ZM64.042 59V60H65.042V59H64.042ZM55.022 59H54.022V60H55.022V59ZM55.022 14.212H45.592V16.212H55.022V14.212ZM46.592 15.212V8.816H44.592V15.212H46.592ZM45.592 9.816C48.2048 9.816 50.3592 9.59511 52.0168 9.12152L51.4673 7.19847C50.0636 7.59955 48.1179 7.816 45.592 7.816V9.816ZM52.008 9.12399C53.7315 8.64853 55.1617 7.85743 56.241 6.71462L54.787 5.34138C54.0077 6.16657 52.9232 6.7968 51.4761 7.19601L52.008 9.12399ZM56.2593 6.69479C57.3013 5.53021 58.1757 3.92917 58.9115 1.94818L57.0366 1.25181C56.3511 3.09749 55.5855 4.44845 54.7688 5.3612L56.2593 6.69479ZM57.974 2.6H64.042V0.599997H57.974V2.6ZM63.042 1.6V59H65.042V1.6H63.042ZM64.042 58H55.022V60H64.042V58ZM56.022 59V15.212H54.022V59H56.022Z" fill="#BD0027" fill-opacity="0.33"/>
</svg>
