<svg width="70" height="60" viewBox="0 0 70 60" fill="none" xmlns="http://www.w3.org/2000/svg">
<path d="M14.4 59.82C9.972 59.82 6.58267 58.5627 4.232 56.048C1.88133 53.5333 0.706 49.98 0.706 45.388V15.212C0.706 10.62 1.88133 7.06666 4.232 4.552C6.58267 2.03733 9.972 0.779997 14.4 0.779997C18.828 0.779997 22.2173 2.03733 24.568 4.552C26.9187 7.06666 28.094 10.62 28.094 15.212V45.388C28.094 49.98 26.9187 53.5333 24.568 56.048C22.2173 58.5627 18.828 59.82 14.4 59.82ZM14.4 51.62C17.516 51.62 19.074 49.734 19.074 45.962V14.638C19.074 10.866 17.516 8.98 14.4 8.98C11.284 8.98 9.726 10.866 9.726 14.638V45.962C9.726 49.734 11.284 51.62 14.4 51.62ZM42.23 52.768C42.23 48.668 42.886 45.1693 44.198 42.272C45.51 39.32 47.8607 36.0673 51.25 32.514C54.5847 28.9607 56.8807 25.9267 58.138 23.412C59.45 20.8973 60.106 18.2733 60.106 15.54C60.106 13.08 59.696 11.3853 58.876 10.456C58.1107 9.472 56.9627 8.98 55.432 8.98C52.316 8.98 50.758 10.866 50.758 14.638V20.788H42.23V15.212C42.23 10.5653 43.378 7.012 45.674 4.552C47.97 2.03733 51.3047 0.779997 55.678 0.779997C60.0514 0.779997 63.386 2.03733 65.682 4.552C67.978 7.012 69.126 10.5653 69.126 15.212C69.126 18.7107 68.2787 22.1273 66.584 25.462C64.944 28.7967 62.074 32.6233 57.974 36.942C55.2954 39.7847 53.4914 42.108 52.562 43.912C51.6327 45.6613 51.168 47.5473 51.168 49.57V50.8H68.306V59H42.23V52.768Z" fill="white"/>
<path d="M4.232 56.048L4.96253 55.3651L4.232 56.048ZM4.232 4.552L4.96253 5.23488L4.232 4.552ZM24.568 4.552L23.8375 5.23488L24.568 4.552ZM24.568 56.048L23.8375 55.3651L24.568 56.048ZM14.4 58.82C10.1651 58.82 7.07358 57.6235 4.96253 55.3651L3.50147 56.7309C6.09175 59.5019 9.77894 60.82 14.4 60.82V58.82ZM4.96253 55.3651C2.83625 53.0905 1.706 49.813 1.706 45.388H-0.294C-0.294 50.147 0.926413 53.9762 3.50147 56.7309L4.96253 55.3651ZM1.706 45.388V15.212H-0.294V45.388H1.706ZM1.706 15.212C1.706 10.787 2.83625 7.5095 4.96253 5.23488L3.50147 3.86911C0.926413 6.62383 -0.294 10.453 -0.294 15.212H1.706ZM4.96253 5.23488C7.07358 2.97655 10.1651 1.78 14.4 1.78V-0.220003C9.77894 -0.220003 6.09175 1.09812 3.50147 3.86911L4.96253 5.23488ZM14.4 1.78C18.6349 1.78 21.7264 2.97655 23.8375 5.23488L25.2985 3.86911C22.7082 1.09812 19.0211 -0.220003 14.4 -0.220003V1.78ZM23.8375 5.23488C25.9637 7.5095 27.094 10.787 27.094 15.212H29.094C29.094 10.453 27.8736 6.62383 25.2985 3.86911L23.8375 5.23488ZM27.094 15.212V45.388H29.094V15.212H27.094ZM27.094 45.388C27.094 49.813 25.9637 53.0905 23.8375 55.3651L25.2985 56.7309C27.8736 53.9762 29.094 50.147 29.094 45.388H27.094ZM23.8375 55.3651C21.7264 57.6235 18.6349 58.82 14.4 58.82V60.82C19.0211 60.82 22.7082 59.5019 25.2985 56.7309L23.8375 55.3651ZM14.4 52.62C16.1678 52.62 17.6575 52.0758 18.6765 50.8424C19.6652 49.6455 20.074 47.9606 20.074 45.962H18.074C18.074 47.7354 17.7038 48.8795 17.1345 49.5686C16.5955 50.2212 15.7482 50.62 14.4 50.62V52.62ZM20.074 45.962V14.638H18.074V45.962H20.074ZM20.074 14.638C20.074 12.6394 19.6652 10.9545 18.6765 9.75762C17.6575 8.52419 16.1678 7.98 14.4 7.98V9.98C15.7482 9.98 16.5955 10.3788 17.1345 11.0314C17.7038 11.7205 18.074 12.8646 18.074 14.638H20.074ZM14.4 7.98C12.6322 7.98 11.1425 8.52419 10.1235 9.75762C9.13484 10.9545 8.726 12.6394 8.726 14.638H10.726C10.726 12.8646 11.0962 11.7205 11.6655 11.0314C12.2045 10.3788 13.0518 9.98 14.4 9.98V7.98ZM8.726 14.638V45.962H10.726V14.638H8.726ZM8.726 45.962C8.726 47.9606 9.13484 49.6455 10.1235 50.8424C11.1425 52.0758 12.6322 52.62 14.4 52.62V50.62C13.0518 50.62 12.2045 50.2212 11.6655 49.5686C11.0962 48.8795 10.726 47.7354 10.726 45.962H8.726ZM44.198 42.272L45.109 42.6845L45.1118 42.6781L44.198 42.272ZM51.25 32.514L51.9737 33.2042L51.9792 33.1983L51.25 32.514ZM58.138 23.412L57.2514 22.9494L57.2475 22.9571L57.2436 22.9648L58.138 23.412ZM58.876 10.456L58.0867 11.0699L58.1057 11.0944L58.1262 11.1176L58.876 10.456ZM50.758 20.788V21.788H51.758V20.788H50.758ZM42.23 20.788H41.23V21.788H42.23V20.788ZM45.674 4.552L46.4051 5.23436L46.4125 5.22627L45.674 4.552ZM65.682 4.552L64.9435 5.22631L64.951 5.23432L65.682 4.552ZM66.584 25.462L65.6925 25.0089L65.6867 25.0207L66.584 25.462ZM57.974 36.942L57.2488 36.2535L57.2462 36.2562L57.974 36.942ZM52.562 43.912L53.4452 44.3812L53.451 44.37L52.562 43.912ZM51.168 50.8H50.168V51.8H51.168V50.8ZM68.306 50.8H69.306V49.8H68.306V50.8ZM68.306 59V60H69.306V59H68.306ZM42.23 59H41.23V60H42.23V59ZM43.23 52.768C43.23 48.7708 43.87 45.4205 45.109 42.6845L43.2871 41.8595C41.902 44.9182 41.23 48.5652 41.23 52.768H43.23ZM45.1118 42.6781C46.3596 39.8707 48.6267 36.7131 51.9736 33.2042L50.5264 31.8238C47.0947 35.4215 44.6605 38.7693 43.2842 41.8659L45.1118 42.6781ZM51.9792 33.1983C55.3392 29.618 57.7114 26.5014 59.0325 23.8592L57.2436 22.9648C56.05 25.352 53.8302 28.3033 50.5208 31.8297L51.9792 33.1983ZM59.0246 23.8746C60.4082 21.2227 61.106 18.4406 61.106 15.54H59.106C59.106 18.1061 58.4918 20.572 57.2514 22.9494L59.0246 23.8746ZM61.106 15.54C61.106 13.0418 60.7046 11.017 59.6259 9.79438L58.1262 11.1176C58.6874 11.7537 59.106 13.1182 59.106 15.54H61.106ZM59.6654 9.84206C58.6674 8.55893 57.1933 7.98 55.432 7.98V9.98C56.7321 9.98 57.554 10.3851 58.0867 11.0699L59.6654 9.84206ZM55.432 7.98C53.6642 7.98 52.1745 8.52419 51.1556 9.75762C50.1669 10.9545 49.758 12.6394 49.758 14.638H51.758C51.758 12.8646 52.1282 11.7205 52.6975 11.0314C53.2366 10.3788 54.0839 9.98 55.432 9.98V7.98ZM49.758 14.638V20.788H51.758V14.638H49.758ZM50.758 19.788H42.23V21.788H50.758V19.788ZM43.23 20.788V15.212H41.23V20.788H43.23ZM43.23 15.212C43.23 10.7212 44.3385 7.44848 46.4051 5.23432L44.943 3.86968C42.4175 6.57552 41.23 10.4094 41.23 15.212H43.23ZM46.4125 5.22627C48.4685 2.97443 51.5008 1.78 55.678 1.78V-0.220003C51.1086 -0.220003 47.4715 1.10023 44.9355 3.87773L46.4125 5.22627ZM55.678 1.78C59.8552 1.78 62.8875 2.97443 64.9436 5.22627L66.4205 3.87773C63.8845 1.10023 60.2475 -0.220003 55.678 -0.220003V1.78ZM64.951 5.23432C67.0175 7.44848 68.126 10.7212 68.126 15.212H70.126C70.126 10.4094 68.9385 6.57552 66.4131 3.86968L64.951 5.23432ZM68.126 15.212C68.126 18.5424 67.3209 21.8047 65.6926 25.0089L67.4755 25.9151C69.2365 22.45 70.126 18.8789 70.126 15.212H68.126ZM65.6867 25.0207C64.1098 28.227 61.3158 31.9696 57.2488 36.2535L58.6993 37.6305C62.8323 33.2771 65.7783 29.3663 67.4814 25.9033L65.6867 25.0207ZM57.2462 36.2562C54.5511 39.1164 52.6683 41.5221 51.6731 43.454L53.451 44.37C54.3144 42.6939 56.0397 40.4529 58.7018 37.6278L57.2462 36.2562ZM51.6789 43.4428C50.6712 45.3398 50.168 47.3873 50.168 49.57H52.168C52.168 47.7073 52.5942 45.9829 53.4451 44.3812L51.6789 43.4428ZM50.168 49.57V50.8H52.168V49.57H50.168ZM51.168 51.8H68.306V49.8H51.168V51.8ZM67.306 50.8V59H69.306V50.8H67.306ZM68.306 58H42.23V60H68.306V58ZM43.23 59V52.768H41.23V59H43.23Z" fill="#BD0027" fill-opacity="0.33"/>
</svg>
