<svg width="69" height="60" viewBox="0 0 69 60" fill="none" xmlns="http://www.w3.org/2000/svg">
<path d="M14.4 59.82C9.972 59.82 6.58267 58.5627 4.232 56.048C1.88133 53.5333 0.706 49.98 0.706 45.388V15.212C0.706 10.62 1.88133 7.06666 4.232 4.552C6.58267 2.03733 9.972 0.779997 14.4 0.779997C18.828 0.779997 22.2173 2.03733 24.568 4.552C26.9187 7.06666 28.094 10.62 28.094 15.212V45.388C28.094 49.98 26.9187 53.5333 24.568 56.048C22.2173 58.5627 18.828 59.82 14.4 59.82ZM14.4 51.62C17.516 51.62 19.074 49.734 19.074 45.962V14.638C19.074 10.866 17.516 8.98 14.4 8.98C11.284 8.98 9.726 10.866 9.726 14.638V45.962C9.726 49.734 11.284 51.62 14.4 51.62ZM55.186 59.82C50.758 59.82 47.396 58.59 45.1 56.13C42.8587 53.67 41.738 50.144 41.738 45.552V40.878H50.266V45.962C50.266 49.734 51.824 51.62 54.94 51.62C56.4707 51.62 57.6187 51.1553 58.384 50.226C59.204 49.242 59.614 47.5473 59.614 45.142V40.468C59.614 37.844 59.1494 35.9853 58.22 34.892C57.2907 33.744 55.7874 33.17 53.71 33.17H50.676V24.97H53.956C55.76 24.97 57.0994 24.5053 57.974 23.576C58.9034 22.6467 59.368 21.0887 59.368 18.902V14.72C59.368 12.752 58.958 11.3033 58.138 10.374C57.318 9.44466 56.2247 8.98 54.858 8.98C51.9607 8.98 50.512 10.7567 50.512 14.31V18.082H41.984V15.048C41.984 10.456 43.1047 6.93 45.346 4.47C47.642 2.01 50.922 0.779997 55.186 0.779997C59.5047 0.779997 62.7847 2.01 65.026 4.47C67.2674 6.87533 68.388 10.374 68.388 14.966V17.016C68.388 20.132 67.8687 22.6467 66.83 24.56C65.7914 26.4187 64.1787 27.758 61.992 28.578V28.742C64.3427 29.6167 66.0374 31.038 67.076 33.006C68.1147 34.974 68.634 37.4887 68.634 40.55V45.634C68.634 50.226 67.486 53.752 65.19 56.212C62.9487 58.6173 59.614 59.82 55.186 59.82Z" fill="white"/>
<path d="M4.232 56.048L4.96253 55.3651L4.232 56.048ZM4.232 4.552L4.96253 5.23488L4.232 4.552ZM24.568 4.552L23.8375 5.23488L24.568 4.552ZM24.568 56.048L23.8375 55.3651L24.568 56.048ZM14.4 58.82C10.1651 58.82 7.07358 57.6235 4.96253 55.3651L3.50147 56.7309C6.09175 59.5019 9.77894 60.82 14.4 60.82V58.82ZM4.96253 55.3651C2.83625 53.0905 1.706 49.813 1.706 45.388H-0.294C-0.294 50.147 0.926413 53.9762 3.50147 56.7309L4.96253 55.3651ZM1.706 45.388V15.212H-0.294V45.388H1.706ZM1.706 15.212C1.706 10.787 2.83625 7.5095 4.96253 5.23488L3.50147 3.86911C0.926413 6.62383 -0.294 10.453 -0.294 15.212H1.706ZM4.96253 5.23488C7.07358 2.97655 10.1651 1.78 14.4 1.78V-0.220003C9.77894 -0.220003 6.09175 1.09812 3.50147 3.86911L4.96253 5.23488ZM14.4 1.78C18.6349 1.78 21.7264 2.97655 23.8375 5.23488L25.2985 3.86911C22.7082 1.09812 19.0211 -0.220003 14.4 -0.220003V1.78ZM23.8375 5.23488C25.9637 7.5095 27.094 10.787 27.094 15.212H29.094C29.094 10.453 27.8736 6.62383 25.2985 3.86911L23.8375 5.23488ZM27.094 15.212V45.388H29.094V15.212H27.094ZM27.094 45.388C27.094 49.813 25.9637 53.0905 23.8375 55.3651L25.2985 56.7309C27.8736 53.9762 29.094 50.147 29.094 45.388H27.094ZM23.8375 55.3651C21.7264 57.6235 18.6349 58.82 14.4 58.82V60.82C19.0211 60.82 22.7082 59.5019 25.2985 56.7309L23.8375 55.3651ZM14.4 52.62C16.1678 52.62 17.6575 52.0758 18.6765 50.8424C19.6652 49.6455 20.074 47.9606 20.074 45.962H18.074C18.074 47.7354 17.7038 48.8795 17.1345 49.5686C16.5955 50.2212 15.7482 50.62 14.4 50.62V52.62ZM20.074 45.962V14.638H18.074V45.962H20.074ZM20.074 14.638C20.074 12.6394 19.6652 10.9545 18.6765 9.75762C17.6575 8.52419 16.1678 7.98 14.4 7.98V9.98C15.7482 9.98 16.5955 10.3788 17.1345 11.0314C17.7038 11.7205 18.074 12.8646 18.074 14.638H20.074ZM14.4 7.98C12.6322 7.98 11.1425 8.52419 10.1235 9.75762C9.13484 10.9545 8.726 12.6394 8.726 14.638H10.726C10.726 12.8646 11.0962 11.7205 11.6655 11.0314C12.2045 10.3788 13.0518 9.98 14.4 9.98V7.98ZM8.726 14.638V45.962H10.726V14.638H8.726ZM8.726 45.962C8.726 47.9606 9.13484 49.6455 10.1235 50.8424C11.1425 52.0758 12.6322 52.62 14.4 52.62V50.62C13.0518 50.62 12.2045 50.2212 11.6655 49.5686C11.0962 48.8795 10.726 47.7354 10.726 45.962H8.726ZM45.1 56.13L44.3608 56.8035L44.369 56.8123L45.1 56.13ZM41.738 40.878V39.878H40.738V40.878H41.738ZM50.266 40.878H51.266V39.878H50.266V40.878ZM58.384 50.226L57.6158 49.5858L57.6121 49.5903L58.384 50.226ZM58.22 34.892L57.4428 35.5212L57.4503 35.5305L57.4581 35.5396L58.22 34.892ZM50.676 33.17H49.676V34.17H50.676V33.17ZM50.676 24.97V23.97H49.676V24.97H50.676ZM57.974 23.576L57.2669 22.8689L57.2562 22.8796L57.2458 22.8906L57.974 23.576ZM58.138 10.374L58.8879 9.71237L58.138 10.374ZM50.512 18.082V19.082H51.512V18.082H50.512ZM41.984 18.082H40.984V19.082H41.984V18.082ZM45.346 4.47L44.6149 3.78763L44.6068 3.79651L45.346 4.47ZM65.026 4.47L64.2868 5.14353L64.2944 5.15172L65.026 4.47ZM66.83 24.56L67.703 25.0479L67.7089 25.0371L66.83 24.56ZM61.992 28.578L61.6409 27.6417L60.992 27.885V28.578H61.992ZM61.992 28.742H60.992V29.4369L61.6433 29.6792L61.992 28.742ZM67.076 33.006L66.1917 33.4728L67.076 33.006ZM65.19 56.212L64.459 55.5297L64.4584 55.5303L65.19 56.212ZM55.186 58.82C50.9433 58.82 47.8833 57.6464 45.8311 55.4477L44.369 56.8123C46.9088 59.5336 50.5727 60.82 55.186 60.82V58.82ZM45.8392 55.4565C43.8204 53.2407 42.738 49.9901 42.738 45.552H40.738C40.738 50.2979 41.897 54.0993 44.3608 56.8035L45.8392 55.4565ZM42.738 45.552V40.878H40.738V45.552H42.738ZM41.738 41.878H50.266V39.878H41.738V41.878ZM49.266 40.878V45.962H51.266V40.878H49.266ZM49.266 45.962C49.266 47.9606 49.6749 49.6455 50.6636 50.8424C51.6825 52.0758 53.1722 52.62 54.94 52.62V50.62C53.5919 50.62 52.7446 50.2212 52.2055 49.5686C51.6362 48.8795 51.266 47.7354 51.266 45.962H49.266ZM54.94 52.62C56.6815 52.62 58.1511 52.082 59.156 50.8617L57.6121 49.5903C57.0863 50.2287 56.2598 50.62 54.94 50.62V52.62ZM59.1523 50.8662C60.2065 49.6011 60.614 47.6019 60.614 45.142H58.614C58.614 47.4927 58.2015 48.8829 57.6158 49.5858L59.1523 50.8662ZM60.614 45.142V40.468H58.614V45.142H60.614ZM60.614 40.468C60.614 37.781 60.1491 35.6174 58.982 34.2444L57.4581 35.5396C58.1496 36.3532 58.614 37.907 58.614 40.468H60.614ZM58.9973 34.2628C57.8097 32.7958 55.9605 32.17 53.71 32.17V34.17C55.6143 34.17 56.7717 34.6922 57.4428 35.5212L58.9973 34.2628ZM53.71 32.17H50.676V34.17H53.71V32.17ZM51.676 33.17V24.97H49.676V33.17H51.676ZM50.676 25.97H53.956V23.97H50.676V25.97ZM53.956 25.97C55.9193 25.97 57.5714 25.4629 58.7022 24.2614L57.2458 22.8906C56.6274 23.5478 55.6007 23.97 53.956 23.97V25.97ZM58.6811 24.2831C59.8898 23.0745 60.368 21.1873 60.368 18.902H58.368C58.368 20.99 57.917 22.2188 57.2669 22.8689L58.6811 24.2831ZM60.368 18.902V14.72H58.368V18.902H60.368ZM60.368 14.72C60.368 12.6442 59.9406 10.9055 58.8879 9.71237L57.3882 11.0356C57.9754 11.7012 58.368 12.8598 58.368 14.72H60.368ZM58.8879 9.71237C57.8572 8.54432 56.4786 7.98 54.858 7.98V9.98C55.9708 9.98 56.7788 10.345 57.3882 11.0356L58.8879 9.71237ZM54.858 7.98C53.1952 7.98 51.7863 8.49977 50.8235 9.68056C49.8926 10.8223 49.512 12.4231 49.512 14.31H51.512C51.512 12.6436 51.8558 11.5794 52.3736 10.9444C52.8594 10.3486 53.6236 9.98 54.858 9.98V7.98ZM49.512 14.31V18.082H51.512V14.31H49.512ZM50.512 17.082H41.984V19.082H50.512V17.082ZM42.984 18.082V15.048H40.984V18.082H42.984ZM42.984 15.048C42.984 10.6099 44.0664 7.35932 46.0852 5.14349L44.6068 3.79651C42.143 6.50068 40.984 10.3021 40.984 15.048H42.984ZM46.0771 5.15232C48.1362 2.9461 51.1205 1.78 55.186 1.78V-0.220003C50.7236 -0.220003 47.1478 1.07389 44.615 3.78768L46.0771 5.15232ZM55.186 1.78C59.312 1.78 62.2875 2.94905 64.2868 5.14349L65.7652 3.79651C63.2819 1.07095 59.6974 -0.220003 55.186 -0.220003V1.78ZM64.2944 5.15172C66.305 7.30941 67.388 10.5261 67.388 14.966H69.388C69.388 10.2219 68.2297 6.44125 65.7576 3.78827L64.2944 5.15172ZM67.388 14.966V17.016H69.388V14.966H67.388ZM67.388 17.016C67.388 20.0327 66.8834 22.3656 65.9512 24.0829L67.7089 25.0371C68.854 22.9277 69.388 20.2313 69.388 17.016H67.388ZM65.9571 24.0722C65.0453 25.7038 63.6291 26.8961 61.6409 27.6417L62.3432 29.5143C64.7283 28.6199 66.5375 27.1335 67.703 25.0478L65.9571 24.0722ZM60.992 28.578V28.742H62.992V28.578H60.992ZM61.6433 29.6792C63.7951 30.4799 65.2824 31.75 66.1917 33.4728L67.9604 32.5392C66.7923 30.326 64.8903 28.7534 62.3408 27.8048L61.6433 29.6792ZM66.1917 33.4728C67.1313 35.2531 67.634 37.5933 67.634 40.55H69.634C69.634 37.384 69.0981 34.6949 67.9604 32.5392L66.1917 33.4728ZM67.634 40.55V45.634H69.634V40.55H67.634ZM67.634 45.634C67.634 50.0664 66.5274 53.3135 64.459 55.5297L65.9211 56.8943C68.4447 54.1905 69.634 50.3856 69.634 45.634H67.634ZM64.4584 55.5303C62.4651 57.6694 59.4367 58.82 55.186 58.82V60.82C59.7913 60.82 63.4323 59.5653 65.9216 56.8937L64.4584 55.5303Z" fill="#BD0027" fill-opacity="0.33"/>
</svg>
